<?xml version="1.0" encoding="UTF-8"?>
<svg width="768px" height="917px" viewBox="0 0 768 917" version="1.1" xmlns="http://www.w3.org/2000/svg" xmlns:xlink="http://www.w3.org/1999/xlink">
    <!-- Generator: Sketch 49.3 (51167) - http://www.bohemiancoding.com/sketch -->
    <title>Page 1</title>
    <desc>Created with Sketch.</desc>
    <defs>
        <linearGradient x1="22.4343418%" y1="104.874095%" x2="101.832141%" y2="100.097539%" id="linearGradient-1">
            <stop stop-color="#8A26F5" offset="0%"></stop>
            <stop stop-color="#51D5D5" offset="48.4781431%"></stop>
            <stop stop-color="#65EB93" offset="100%"></stop>
        </linearGradient>
    </defs>
    <g id="Page-1" stroke="none" stroke-width="1" fill="none" fill-rule="evenodd">
        <path d="M422.336468,369.619825 C422.336468,369.619825 457.473997,387.981978 451.920692,310.330342 C451.920692,310.330342 439.267406,252.411308 529.296432,227.015896 C529.296432,227.015896 719.185441,184.627845 759.967161,84.4119674 C759.967161,84.4119674 789.460501,119.674149 727.651726,167.726413 C727.651726,167.726413 744.583364,194.583482 692.514196,215.68747 C692.514196,215.68747 714.998673,236.881496 662.929972,246.747095 C662.929972,246.747095 685.414449,286.30304 622.148252,282.009277 C622.148252,282.009277 647.453892,313.068902 594.747597,311.698453 C594.747597,311.698453 622.148252,344.128527 563.068357,335.723415 C563.068357,335.723415 579.999995,368.15349 536.306227,359.748378 C536.306227,359.748378 501.168697,444.433273 439.266707,445.89493 C439.266707,445.89493 494.158902,488.282982 544.770182,502.352307 C544.770182,502.352307 615.136126,530.579826 620.689431,537.614488 C620.689431,537.614488 644.629466,572.87667 594.654381,570.044563 C594.654381,570.044563 610.857774,605.306744 572.807032,601.104188 C572.807032,601.104188 572.807032,644.862689 539.035107,616.634235 C539.035107,616.634235 532.025778,701.31913 472.947747,586.945059 C472.947747,586.945059 477.135214,606.677428 450.46327,630.70356 C450.46327,630.70356 484.235195,657.560629 478.591005,706.892136 C478.591005,706.892136 506.71874,682.867173 558.78884,706.892136 C558.78884,706.892136 595.382859,728.086161 575.720478,771.843493 C575.720478,771.843493 548.958348,824.098313 463.207208,771.843493 C463.207208,771.843493 444.909965,791.48442 433.622983,795.047355 C433.622983,795.047355 496.888248,828.300635 512.364328,911.615081 C512.364328,911.615081 472.948213,897.45525 458.928623,911.615081 C458.928623,911.615081 440.63138,921.481149 422.334603,911.615081 C422.334603,911.615081 405.49385,890.421055 373.086598,908.783209 C373.086598,908.783209 349.146564,918.64951 335.126974,900.287357 C335.126974,900.287357 309.821334,880.554988 288.701064,905.951336 C288.701064,905.951336 290.066669,825.468997 351.966328,795.871028 C351.966328,795.871028 328.026294,747.909971 340.678414,728.087565 C340.678414,728.087565 252.014295,771.846065 222.520955,682.958614 C222.520955,682.958614 131.125625,719.682453 122.65934,640.570563 C122.65934,640.570563 77.5990351,640.570563 87.5218101,598.182512 C87.5218101,598.182512 104.362563,571.325442 136.769815,602.384834 C136.769815,602.384834 190.20552,562.828889 233.809335,629.241903 C233.809335,629.241903 240.818664,615.082072 254.92844,616.543729 C254.92844,616.543729 221.156515,534.69094 276.047545,527.56507 C276.047545,527.56507 329.48325,526.194855 297.16665,620.746285 C297.16665,620.746285 340.770464,634.906116 356.246545,680.035768 C356.246545,680.035768 368.89983,624.948841 409.682249,619.375836 C409.682249,619.375836 439.266474,629.242137 439.266474,606.677662 C439.266474,606.677662 450.554388,578.450143 402.672454,534.691642 C402.672454,534.691642 343.592559,612.341875 312.64273,489.471484 C312.64273,489.471484 262.75853,443.612875 256.38493,493.673806 C256.38493,493.673806 249.375601,527.565538 200.12713,527.565538 C200.12713,527.565538 169.1773,536.06139 169.1773,548.759564 C169.1773,548.759564 150.880057,551.591436 160.711481,533.229517 C160.711481,533.229517 173.364767,491.023881 216.969281,500.158652 C216.969281,500.158652 236.631896,497.966167 232.444429,461.241159 C232.444429,461.241159 246.463087,404.783783 323.839759,448.542985 C323.839759,448.542985 316.83043,423.147573 322.474387,401.952378 C322.474387,401.952378 221.156282,425.977341 218.334187,312.973719 C218.334187,312.973719 169.177067,312.973719 187.384357,281.914094 C187.384357,281.914094 115.652807,266.384047 145.146147,240.987699 C145.146147,240.987699 69.2268975,229.659741 97.3546323,202.893411 C97.3546323,202.893411 24.2574776,164.799124 65.0391975,152.100248 C65.0391975,152.100248 -8.14884214,97.0133212 42.5547206,102.677534 C42.5547206,102.677534 -30.633319,60.2894829 17.2490808,1 C17.2490808,1 69.3191807,111.080308 167.721975,143.603929 C167.721975,143.603929 260.573795,187.362429 288.70153,222.624611 C288.70153,222.624611 330.93974,260.718899 288.70153,301.645293 C288.70153,301.645293 269.038915,329.872812 318.285754,325.670256 C318.285754,325.670256 335.126507,226.824828 370.355854,218.422055 L352.058611,214.219733 C352.058611,214.219733 377.364251,178.957551 405.494316,183.160107 C405.494316,183.160107 373.178882,170.461933 332.306277,180.328235 C332.306277,180.328235 264.762427,178.958019 263.396822,154.932822 C263.396822,154.932822 233.812597,133.738797 257.752865,133.738797 C257.752865,133.738797 298.534585,123.872495 315.467155,152.10095 C315.467155,152.10095 336.58626,167.630996 367.537255,153.471165 C367.537255,153.471165 420.97296,146.43697 456.201375,183.160341 C456.201375,183.160341 481.507014,191.656193 480.141409,212.849517 C480.141409,212.849517 459.022305,197.31947 460.478795,214.219966 C460.478795,214.219966 453.469466,250.943805 426.70687,313.065394 C426.524867,313.156602 403.949272,341.38412 422.3374,369.613978 L422.336468,369.619825 Z" stroke="url(#linearGradient-1)"></path>
    </g>
</svg>